<?xml version="1.0" encoding="utf-8"?>
<!-- Generator: Adobe Illustrator 19.0.0, SVG Export Plug-In . SVG Version: 6.00 Build 0)  -->
<svg version="1.1" id="Layer_1" xmlns="http://www.w3.org/2000/svg" xmlns:xlink="http://www.w3.org/1999/xlink" x="0px" y="0px"
	 viewBox="540 -309.5 2040.5 1178.5" style="enable-background:new 540 -309.5 2040.5 1178.5;" xml:space="preserve">
<style type="text/css">
	.st0{fill:#E5EDF0;}
	.st1{display:none;}
	.st2{display:inline;fill:none;stroke:#CCCCCC;stroke-width:3;stroke-miterlimit:10;}
	.st3{display:inline;}
</style>
<g id="trail-path">
	<path id="_x3C_path_x3E__1_" class="st0" d="M912.8,9.8c0,0,62.6-90.4,55.1-88.4s39.8-47.4,41.3-51.7c1.5-4.3,64-23.7,62-23
		s103.4,33.8,88.4,21.8s176.4,3.2,173.4,8c-3,4.8,152.5-29.2,155-29.9s89.6,0,89.6,0l47.1-0.3h52.8c0,0,45.8,24.8,41.3,23.3
		s31.4,19.2,26.4,17.2s25.7,21,20.7,23s134.7,243.6,129.7,241.1s86.2,113.3,79.2,118.3s88.4-165.2,76.9-164.2
		c-11.5,1,71.3-52.4,64.3-45.9s74.1,8.6,71.2,3.4c-2.8-5.2,64,121,62,126.3s18.4,93.8,14.9,90.8s86.2,79.9,82.7,84.9
		s38.1,94.1,27.6,94.1s-49.5,83.4-50.5,88.4S2123.2,562,2117.2,569s-248.8,58.2-249.1,65.4c-0.3,7.1-109.9,138.4-119.4,142.4
		s-271.7-20.7-276.7-29.9c-5-9.3-171.3,61.8-178,60.9c-6.7-0.9-81-38.9-101-44.8c-20-5.9-65.4-56.5-80.4-57.4
		c-15-0.9-48.2-62-48.2-62s-22.1-77-32.1-81.5c-10-4.5-28.1-109.2-32.1-113.7s-8-68.9-8-68.9s73.8-91.1,64.3-86.1
		s50.5-67.7,50.5-67.7s130.6-38,125.1-39s90.3-34.4,87.3-33.3s56.3-43.6,56.3-43.6s-21.3-43-25.3-45.9c-4-2.9-51.7-74.5-51.7-70
		S1018.7,98.9,958.7,60.3"/>
</g>
<g id="camera-path" class="st1">
	<path id="_x3C_path_x3E__3_" class="st2" d="M1887,197.7c0,0-13.7-110.5-205.3-79.2c0,0-66.7,28-104.7,66s-156,17.7-190-12.2
		c0,0-21.7-52.2-118.7,44.4c0,0,278.8,66,614.9-13.3"/>
</g>
<g id="points" class="st1">
	<circle id="Leh" class="st3" cx="1846" cy="160.8" r="5.8"/>
	<circle id="Kargil" class="st3" cx="1675.9" cy="155" r="5.8"/>
	<circle id="Drass" class="st3" cx="1503.9" cy="197.7" r="5.8"/>
	<circle id="Pandrass" class="st3" cx="1356.2" cy="166.6" r="5.8"/>
	<circle id="Mattayan" class="st3" cx="1292" cy="203.5" r="5.8"/>
	<circle id="Zojila_Pass" class="st3" cx="1268.3" cy="216.8" r="5.8"/>
</g>
<image style="overflow:visible;enable-background:new    ;" width="1966" height="1178" xlink:href="588EF160E895D476.jpeg"  transform="matrix(1 0 0 1 540 -309.5)">
</image>
</svg>
