<?xml version="1.0" encoding="utf-8"?>
<!-- Generator: Adobe Illustrator 19.2.1, SVG Export Plug-In . SVG Version: 6.00 Build 0)  -->
<!DOCTYPE svg PUBLIC "-//W3C//DTD SVG 1.1//EN" "http://www.w3.org/Graphics/SVG/1.1/DTD/svg11.dtd">
<svg version="1.1" id="Layer_1" xmlns="http://www.w3.org/2000/svg" xmlns:xlink="http://www.w3.org/1999/xlink" x="0px" y="0px"
	 width="2040.5px" height="1178.5px" viewBox="0 0 2040.5 1178.5" enable-background="new 0 0 2040.5 1178.5" xml:space="preserve">
	 <style type="text/css">
		.st0{fill:#D5D0CC;}
	 	.st1{fill:#D3D6B4;}
	 	.st2{fill:#DFDACC;}
	 	.st3{fill:#EBE8DA;}
	 	.st4{fill:#C3C4A3;}
	 	.st5{fill:#939598;}
	 	.st6{font-family:'Arial-BoldMT';}
	 	.st7{font-size:10px;}
	 	.st8{display:none;}
	 	.st9{display:inline;fill:#E5EDF0;}
	 	.st10{display:inline;fill:none;stroke:#CCCCCC;stroke-width:3;stroke-miterlimit:10;}
	 	.st11{display:inline;}
	 </style>
	 <g>
	 </g>
	 <g>
	 </g>
	 <g>
	 </g>
	 <g>
	 </g>
	 <g>
	 </g>
	 <g id="trail-path" class="st8">
	 	<path id="_x3C_path_x3E__1_" class="st9" d="M1339.4,501.4c0,0,2.1-15.4-5.4-13.4s-11,0.7-9.5-3.6s-2.5-14.8-4.5-14.1
	 		s-7.5,6.2-22.5-5.8s-11.5-10.6-14.5-5.8s-22.5-2.8-20-3.5s-6.5-9.2-6.5-9.2l-14.5,3v7c0,0,0.5,2-4,0.5s-2-8.5-7-10.5s-6,3-11,5
	 		s0-10.5-5-13s-2-9.5-9-4.5s0,10.5-11.5,11.5s-9-0.5-16,6s-21.3,12.9-24.2,7.7c-2.8-5.2-4.3-5.3-6.3,0s-18.5,8.2-22,5.2
	 		s-11.5-5-15,0s-5,10-15.5,10s-26.5-6-27.5-1s-5.5,10.5-11.5,17.5s-30.4,4.7-30.7,11.9c-0.3,7.1,1.7,6.6-7.8,10.6
	 		c-9.5,4-20,15-25,5.8c-5-9.3-10.8-12.9-17.5-13.8s-8.5,2.3-28.5-3.6s-18.5,0.9-33.5,0s-37.8-3.4-37.8-3.4s-15.7,4-25.7-0.5
	 		s-17-5-21-9.5s-10.5-3.6-10.5-3.6s1.4-21.4-8.1-16.4s-17.9,16.4-17.9,16.4s-7.5,10.1-13,9.1s-12,6.8-15,7.9S760,513,760,513
	 		s-12.5,12.3-16.5,9.4s-21,3.1-21,7.6s676.9,4.9,616.9-33.7"/>
	 </g>
	 <g id="camera-path" class="st8">
	 	<path id="_x3C_path_x3E__3_" class="st10" d="M1347,507.2c0,0-13.7-110.5-205.3-79.2c0,0-66.7,28-104.7,66s-156,17.7-190-12.2
	 		c0,0-21.7-52.2-118.7,44.4c0,0,278.8,66,614.9-13.3"/>
	 </g>
	 <g id="points" class="st8">
	 	<circle id="Leh" class="st11" cx="1306" cy="470.3" r="5.8"/>
	 	<circle id="Kargil" class="st11" cx="1135.9" cy="464.5" r="5.8"/>
	 	<circle id="Drass" class="st11" cx="963.9" cy="507.2" r="5.8"/>
	 	<circle id="Pandrass" class="st11" cx="816.2" cy="476.1" r="5.8"/>
	 	<circle id="Mattayan" class="st11" cx="752" cy="513" r="5.8"/>
	 	<circle id="Zojila_Pass" class="st11" cx="728.3" cy="526.3" r="5.8"/>
	 </g>
	  </svg>
